<?xml version="1.0" encoding="UTF-8" standalone="no"?> <svg width="64" height="64" viewBox="0 0 64 64" fill="none" xmlns="http://www.w3.org/2000/svg">
<path d="M12 2V6H10C9.20462 6.00087 8.44206 6.31722 7.87964 6.87964C7.31722 7.44206 7.00087 8.20462 7 9V59C7.00087 59.7954 7.31722 60.5579 7.87964 61.1204C8.44206 61.6828 9.20462 61.9991 10 62H49C51.4088 62.0035 53.7628 61.2809 55.7548 59.9265C57.7467 58.5721 59.2843 56.6487 60.1668 54.4074C61.0494 52.1661 61.2359 49.7108 60.7021 47.3619C60.1683 45.0129 58.939 42.8794 57.1744 41.2396L58.5 39.9141L59.293 40.7071L60.707 39.293L57.707 36.293L56.293 37.707L57.086 38.5L55.5984 39.9875C54.4953 39.2612 53.2793 38.723 52 38.3949V36H54V34H44V36H46V38.3949C43.5943 39.0194 41.4417 40.3748 39.8388 42.2742C38.2359 44.1737 37.2618 46.5236 37.0507 49H33V40H40V38H33V29H43V32H45V29H55V32H57V9C56.9991 8.20462 56.6828 7.44206 56.1204 6.87964C55.5579 6.31722 54.7954 6.00087 54 6H52V2H50V6H48V2H46V6H18V2H16V6H14V2H12ZM31 18V27H21V18H31ZM19 27H9V18H19V27ZM9 38V29H19V38H9ZM19 40V49H9V40H19ZM9 59V51H19V60H10C9.73486 59.9997 9.48066 59.8943 9.29319 59.7068C9.10571 59.5193 9.00026 59.2651 9 59ZM21 51H31V60H21V51ZM48 36H50V38.0507C49.6694 38.0232 49.3375 38 49 38C48.6625 38 48.3306 38.0232 48 38.0507V36ZM49 40C50.9778 40 52.9112 40.5865 54.5557 41.6853C56.2002 42.7841 57.4819 44.3459 58.2388 46.1732C58.9957 48.0004 59.1937 50.0111 58.8079 51.9509C58.422 53.8907 57.4696 55.6725 56.0711 57.0711C54.6725 58.4696 52.8907 59.422 50.9509 59.8079C49.0111 60.1937 47.0004 59.9957 45.1732 59.2388C43.3459 58.4819 41.7841 57.2002 40.6853 55.5557C39.5865 53.9112 39 51.9778 39 50C39.003 47.3488 40.0576 44.807 41.9323 42.9323C43.807 41.0576 46.3488 40.003 49 40V40ZM37.0507 51C37.2021 52.8052 37.7604 54.5527 38.6836 56.1114C39.6067 57.6701 40.8709 58.9995 42.3811 60H33V51H37.0507ZM31 49H21V40H31V49ZM31 38H21V29H31V38ZM33 27V18H43V27H33ZM45 27V18H55V27H45ZM16 8V11H18V8H46V11H48V8H50V11H52V8H54C54.2651 8.00026 54.5193 8.10571 54.7068 8.29319C54.8943 8.48066 54.9997 8.73486 55 9V16H9V9C9.00026 8.73486 9.10571 8.48066 9.29319 8.29319C9.48066 8.10571 9.73486 8.00026 10 8H12V11H14V8H16Z" fill="url(#paint0_linear_447_1185)"/>
<path d="M38 11H26V13H38V11Z" fill="url(#paint1_linear_447_1185)"/>
<path d="M17.641 31.768L16.359 30.232L14 32.198L11.641 30.232L10.359 31.768L12.438 33.5L10.359 35.232L11.641 36.768L14 34.802L16.359 36.768L17.641 35.232L15.562 33.5L17.641 31.768Z" fill="url(#paint2_linear_447_1185)"/>
<path d="M50 51.535V42H48V50.465L42.445 54.168L43.555 55.832L50 51.535Z" fill="url(#paint3_linear_447_1185)"/>
<defs>
<linearGradient id="paint0_linear_447_1185" x1="33.4597" y1="-0.81634" x2="34.0466" y2="59.2488" gradientUnits="userSpaceOnUse">
<stop stop-color="#2AB793"/>
<stop offset="1" stop-color="#2C98B5"/>
</linearGradient>
<linearGradient id="paint1_linear_447_1185" x1="408.499" y1="9.3983" x2="408.695" y2="129.54" gradientUnits="userSpaceOnUse">
<stop stop-color="#2AB793"/>
<stop offset="1" stop-color="#2C98B5"/>
</linearGradient>
<linearGradient id="paint2_linear_447_1185" x1="109.879" y1="26.1606" x2="113.322" y2="418.753" gradientUnits="userSpaceOnUse">
<stop stop-color="#2AB793"/>
<stop offset="1" stop-color="#2C98B5"/>
</linearGradient>
<linearGradient id="paint3_linear_447_1185" x1="388.038" y1="29.048" x2="402.899" y2="859.682" gradientUnits="userSpaceOnUse">
<stop stop-color="#2AB793"/>
<stop offset="1" stop-color="#2C98B5"/>
</linearGradient>
</defs>
</svg>
